<?xml version="1.0" encoding="UTF-8" standalone="no"?>
<svg
   height="24px"
   viewBox="0 -960 960 960"
   width="24px"
   fill="#5f6368"
   version="1.1"
   id="svg1"
   sodipodi:docname="heart.svg"
   inkscape:version="1.3.2 (091e20e, 2023-11-25, custom)"
   xmlns:inkscape="http://www.inkscape.org/namespaces/inkscape"
   xmlns:sodipodi="http://sodipodi.sourceforge.net/DTD/sodipodi-0.dtd"
   xmlns="http://www.w3.org/2000/svg"
   xmlns:svg="http://www.w3.org/2000/svg">
  <defs
     id="defs1" />
  <sodipodi:namedview
     id="namedview1"
     pagecolor="#505050"
     bordercolor="#ffffff"
     borderopacity="1"
     inkscape:showpageshadow="0"
     inkscape:pageopacity="0"
     inkscape:pagecheckerboard="1"
     inkscape:deskcolor="#505050"
     inkscape:zoom="8"
     inkscape:cx="9.3125"
     inkscape:cy="37.0625"
     inkscape:window-width="1920"
     inkscape:window-height="1057"
     inkscape:window-x="1912"
     inkscape:window-y="-8"
     inkscape:window-maximized="1"
     inkscape:current-layer="svg1" />
  <path
     id="path1"
     style="fill:#f79191;fill-opacity:1"
     d="M 300 -853.98438 C 237.3337 -853.98438 184.96851 -833.01538 142.96875 -791.01562 C 100.96899 -749.01592 80 -696.65063 80 -633.98438 C 80 -603.31789 85.135477 -573.31753 95.46875 -543.98438 C 105.80202 -514.65117 124.00018 -482.49982 150 -447.5 C 175.99982 -412.50019 211.00024 -372.98408 255 -328.98438 C 298.99976 -284.98462 354.69833 -232.69756 422.03125 -172.03125 L 480 -120 L 537.96875 -172.03125 C 605.30167 -232.69756 661.00024 -284.98462 705 -328.98438 C 748.99976 -372.98408 784.00018 -412.50019 810 -447.5 C 835.99982 -482.49982 854.19798 -514.65117 864.53125 -543.98438 C 874.86452 -573.31753 880 -603.31789 880 -633.98438 C 880 -696.65063 859.03101 -749.01592 817.03125 -791.01562 C 775.03149 -833.01538 722.6663 -853.98438 660 -853.98438 C 625.33352 -853.98438 592.34878 -846.69785 561.01562 -832.03125 C 529.68252 -817.36465 502.66654 -796.66649 480 -770 C 457.33346 -796.66649 430.31748 -817.36465 398.98438 -832.03125 C 367.65122 -846.69785 334.66648 -853.98438 300 -853.98438 z " />
</svg>
