<?xml version="1.0" encoding="UTF-8" standalone="no"?>
<!-- Created with Inkscape (http://www.inkscape.org/) -->

<svg
   width="30.880413mm"
   height="22.427105mm"
   viewBox="0 0 30.880413 22.427105"
   version="1.1"
   id="svg1"
   xmlns:inkscape="http://www.inkscape.org/namespaces/inkscape"
   xmlns:sodipodi="http://sodipodi.sourceforge.net/DTD/sodipodi-0.dtd"
   xmlns="http://www.w3.org/2000/svg"
   xmlns:svg="http://www.w3.org/2000/svg">
  <sodipodi:namedview
     id="namedview1"
     pagecolor="#505050"
     bordercolor="#ffffff"
     borderopacity="1"
     inkscape:showpageshadow="0"
     inkscape:pageopacity="0"
     inkscape:pagecheckerboard="1"
     inkscape:deskcolor="#505050"
     inkscape:document-units="mm"
     inkscape:export-bgcolor="#ffffff00" />
  <defs
     id="defs1">
    <rect
       x="239.23619"
       y="194.25719"
       width="415.89288"
       height="190.99783"
       id="rect1" />
  </defs>
  <g
     inkscape:label="Warstwa 1"
     inkscape:groupmode="layer"
     id="layer1"
     transform="translate(-83.400316,-25.435657)">
    <text
       xml:space="preserve"
       style="font-style:normal;font-variant:normal;font-weight:normal;font-stretch:normal;font-size:22.5778px;font-family:Impact;-inkscape-font-specification:'Impact, Normal';font-variant-ligatures:normal;font-variant-caps:normal;font-variant-numeric:normal;font-variant-east-asian:normal;fill:#ffc535;fill-opacity:1;stroke-width:0.264583"
       x="85.547035"
       y="43.290939"
       id="text2"
       inkscape:export-filename="JMBenchmark.svg"
       inkscape:export-xdpi="96"
       inkscape:export-ydpi="96"><tspan
         sodipodi:role="line"
         id="tspan2"
         style="fill:#ffc535;fill-opacity:1;stroke-width:0.264583"
         x="85.547035"
         y="43.290939">M</tspan></text>
    <path
       id="text1"
       style="white-space:pre;shape-inside:url(#rect1);fill:#4d97ff;fill-opacity:1;stroke-width:0.267653"
       d="m 86.424498,25.435656 v 2.28863 h -0.01672 v 14.167839 c 0,0.762899 -0.01301,1.2768 -0.03968,1.542159 -0.02667,0.265359 -0.126916,0.48933 -0.300223,0.671764 -0.173314,0.182434 -0.409612,0.273918 -0.709576,0.273918 -0.0997,0 -0.263444,-0.01144 -0.471483,-0.03069 v 5.79e-4 h -0.07884 v 0.0012 h -1.407653 v 3.511704 h 1.407663 0.09242 2.017509 c 0.933221,0 1.629623,-0.08704 2.089565,-0.26118 0.466609,-0.182428 0.833494,-0.506203 1.100127,-0.970582 0.273302,-0.464376 0.42667,-0.982141 0.459999,-1.554321 0.03332,-0.580471 0.05012,-1.878273 0.05012,-3.893331 V 27.724286 h -0.0032 v -2.28863 z" />
    <text
       xml:space="preserve"
       style="font-style:normal;font-variant:normal;font-weight:normal;font-stretch:normal;font-size:4.93333px;font-family:Impact;-inkscape-font-specification:'Impact, Normal';font-variant-ligatures:normal;font-variant-caps:normal;font-variant-numeric:normal;font-variant-east-asian:normal;fill:#ffffff;fill-opacity:1;stroke-width:0.0578123"
       x="90.987129"
       y="47.488396"
       id="text3"><tspan
         sodipodi:role="line"
         id="tspan3"
         style="fill:#ffffff;fill-opacity:1;stroke-width:0.0578123"
         x="90.987129"
         y="47.488396">Benchmark</tspan></text>
  </g>
</svg>
